<svg width="28" height="29" viewBox="0 0 28 29" fill="none" xmlns="http://www.w3.org/2000/svg">
<g opacity="0.75">
<path d="M17.9756 7.06033H24.4634V8.60327H17.9756V7.06033ZM11.4748 13.1651C12.9089 12.4925 13.6602 11.4692 13.6602 9.88799C13.6602 6.76067 11.2862 6.00195 8.54471 6.00195H1V21.6991H8.7561C11.6634 21.6991 14.3919 20.3283 14.3919 17.1404C14.3919 15.1703 13.4423 13.7134 11.4748 13.1651ZM4.5187 8.67978H7.81951C9.09106 8.67978 10.2325 9.02726 10.2325 10.4746C10.2325 11.8071 9.34472 12.3427 8.08618 12.3427H4.5187V8.67978ZM8.2748 19.034H4.51545V14.7113H8.34959C9.89756 14.7113 10.8764 15.3456 10.8764 16.9523C10.8764 18.5335 9.70894 19.034 8.2748 19.034ZM27 16.1809C27 12.8177 24.9935 10.0155 21.3642 10.0155C17.8358 10.0155 15.4358 12.62 15.4358 16.0342C15.4358 19.5728 17.7089 22.002 21.3642 22.002C24.1317 22.002 25.9236 20.781 26.7854 18.1765H23.9789C23.6732 19.1488 22.4309 19.6589 21.465 19.6589C19.5984 19.6589 18.6228 18.5877 18.6228 16.7674H26.9772C26.987 16.5794 27 16.3817 27 16.1809ZM18.6228 14.7973C18.7236 13.3022 19.7415 12.3682 21.2634 12.3682C22.8634 12.3682 23.6634 13.2895 23.8033 14.7973H18.6228Z" fill="#FAFAFA"/>
</g>
</svg>
