<svg width="28" height="29" viewBox="0 0 28 29" fill="none" xmlns="http://www.w3.org/2000/svg">
<g opacity="0.75">
<path d="M3.00159 16.9374C3.00335 7.87074 2.98143 8.19953 3.6754 6.80489C4.52703 5.09328 6.11566 3.82757 8.22289 3.18199C8.79221 3.00741 9.05852 3.00195 16.7643 3.00195H24.718V6.00891V9.01605H17.521C11.6811 9.01605 10.2688 9.0397 10.0314 9.1379C9.54272 9.34048 9.17627 9.8344 9.10947 10.3807C9.07738 10.6426 9.064 14.0378 9.07977 17.9256L9.10818 24.9943H6.05408H3L3.00159 16.9374ZM10.7823 21.855V18.7103H14.6056C17.5988 18.7103 18.4624 18.6831 18.5836 18.5903C18.8304 18.4043 18.9265 18.0344 18.9265 17.2706V16.5583H14.8544H10.7823V14.0871C10.7823 12.1203 10.8094 11.5515 10.9148 11.3012C11.1656 10.7057 10.9332 10.7238 18.3407 10.7238H25L24.9676 15.324C24.9358 19.7962 24.9292 19.9431 24.7303 20.5976C24.1695 22.4413 22.7995 23.8555 20.8006 24.6542L20.0578 24.951L15.4201 24.9765L10.7824 25.002V21.8571L10.7823 21.855Z" fill="#FAFAFA"/>
</g>
</svg>
