<svg width="139" height="56" viewBox="0 0 139 56" fill="none" xmlns="http://www.w3.org/2000/svg">
<path d="M95.0307 20.8353H93.7108L79.4396 2.92353V20.8353H77.9135V0H79.2333L93.5046 17.9529V0H95.0307V20.8353Z" fill="#FAFAFA"/>
<path d="M71.6036 0V12.1059C71.6036 15.1118 70.8611 17.3353 69.3763 18.8176C67.8914 20.3 65.8291 21.1235 63.7255 21.0412C61.2095 21.0412 59.1472 20.2588 57.5798 18.6941C56.0125 17.1294 55.27 14.8235 55.27 11.9V0H56.9199V11.6118C56.9199 16.5941 59.5596 19.5176 63.7255 19.5176C67.5202 19.5176 69.9949 16.8824 69.9949 11.7353V0H71.6036Z" fill="#FAFAFA"/>
<path d="M102.373 20.8353V0H104.023V20.8353H102.373Z" fill="#FAFAFA"/>
<path d="M108.314 1.56471V0H125.39V1.56471H117.677V20.8353H116.027V1.56471H108.314Z" fill="#FAFAFA"/>
<path d="M54.5694 28.1653C54.5281 26.7653 55.1468 25.3653 56.2192 24.4594C57.3329 23.4712 58.8177 22.9771 60.6738 22.9771C62.9836 22.9771 65.0872 23.7594 66.2833 25.077L65.3759 26.3123C64.1385 25.1182 62.4474 24.4594 60.7151 24.5418C57.9928 24.5418 56.2605 25.9829 56.2605 28.2065C56.2605 34.0123 67.0258 31.6653 67.0258 38.8712C67.067 40.4359 66.3246 41.9183 65.0872 42.8242C63.726 43.8536 62.0762 44.3889 60.3439 44.3477C59.024 44.3477 57.7453 44.0595 56.5492 43.5242C55.4768 43.1124 54.5694 42.3301 53.9507 41.3418L54.9406 40.1888C56.2605 41.7948 58.2403 42.7418 60.3439 42.783C61.5812 42.8242 62.8186 42.4536 63.8085 41.7536C64.7572 41.1359 65.2934 40.0241 65.2522 38.9123C65.3347 33.0241 54.5694 35.1241 54.5694 28.1653Z" fill="#FAFAFA"/>
<path d="M73.6246 44.0582H71.9747V23.223C72.3459 23.223 73.2121 23.223 74.4908 23.1818C75.7694 23.1406 76.6768 23.1406 77.048 23.1406C82.8225 23.1406 84.4724 26.3112 84.4724 29.3994C84.5136 31.0877 83.8124 32.7347 82.6163 33.9289C81.3789 35.1642 79.5228 35.7818 77.0893 35.7818C75.8519 35.7818 74.6557 35.7406 73.6246 35.6583V44.0582ZM73.6246 24.7877V34.1347C74.9032 34.2171 76.0581 34.2995 77.0068 34.2995C80.7189 34.2995 82.74 32.4053 82.74 29.4406C82.74 26.5994 80.9664 24.7465 77.213 24.7465C76.1406 24.7465 74.9445 24.7465 73.6246 24.7877Z" fill="#FAFAFA"/>
<path d="M84.8431 44.0586L93.9173 23.0586H95.2784L104.353 44.0586H102.579L99.5268 36.9762H89.5452L86.493 44.0586H84.8431ZM94.536 25.3233L90.2052 35.4115H98.8669L94.536 25.3233Z" fill="#FAFAFA"/>
<path d="M122.79 42.0418C121.346 43.483 118.83 44.3477 116.314 44.3477C113.179 44.3477 110.704 43.3595 108.766 41.4242C106.827 39.4888 105.879 36.8947 105.879 33.6418C105.879 30.5947 106.786 28.0418 108.683 26.0241C110.581 24.0065 113.014 22.9771 116.108 22.9771C118.747 22.9771 120.851 23.6359 122.418 24.9535L121.635 26.1888C120.191 25.0771 118.335 24.5418 116.108 24.5418C113.757 24.4594 111.488 25.4065 109.921 27.1359C108.353 28.8241 107.57 31.0476 107.57 33.6829C107.57 36.4006 108.395 38.5829 110.003 40.2712C111.612 41.9595 113.798 42.783 116.396 42.783C118.459 42.8242 120.48 42.1242 122.088 40.8065L122.79 42.0418Z" fill="#FAFAFA"/>
<path d="M127.12 44.0588V23.2236H138.628V24.7883H128.77V32.7354H137.762V34.2589H128.77V42.4941H138.958V44.0588H127.12Z" fill="#FAFAFA"/>
<path d="M57.4556 51.8825C57.4556 52.2531 57.3318 52.6237 57.0431 52.8707C56.7544 53.159 56.3832 53.2825 56.012 53.2825C55.3933 53.2825 54.8158 52.9531 54.5271 52.3766L55.0633 52.006C55.187 52.4178 55.5583 52.6649 56.012 52.706C56.2182 52.706 56.4244 52.6237 56.5482 52.5002C56.6719 52.3766 56.7544 52.1708 56.7544 52.006C56.7544 51.8413 56.6719 51.6766 56.5482 51.5531C56.3007 51.3884 56.0532 51.2649 55.7645 51.1413C55.1045 50.8531 54.7333 50.4825 54.7333 49.9884C54.7333 49.659 54.8571 49.3707 55.1045 49.1649C55.352 48.959 55.6407 48.8354 55.9707 48.8354C56.4657 48.8354 56.8781 49.0825 57.0844 49.5355L56.5894 49.906C56.4657 49.659 56.2182 49.4943 55.9707 49.4943C55.8057 49.4943 55.682 49.5355 55.5583 49.659C55.352 49.8237 55.3108 50.1119 55.4758 50.2766C55.4758 50.3178 55.517 50.3178 55.5583 50.359C55.7645 50.5237 55.9707 50.606 56.2182 50.6884C56.5482 50.8119 56.8781 50.9766 57.1256 51.2237C57.3731 51.3472 57.4968 51.6355 57.4556 51.8825Z" fill="#FAFAFA"/>
<path d="M62.611 51.0181C62.611 51.6357 62.3636 52.2122 61.9511 52.624C61.0437 53.4887 59.6001 53.4887 58.6926 52.624C57.7852 51.7593 57.7852 50.3181 58.6926 49.4122C59.6001 48.5475 61.0437 48.5475 61.9511 49.4122C62.3636 49.824 62.611 50.4004 62.611 51.0181ZM61.8686 51.0181C61.8686 50.6063 61.7036 50.1946 61.4149 49.9063C61.1262 49.6181 60.7137 49.4534 60.3013 49.4534C59.8888 49.4534 59.4763 49.6181 59.1876 49.9063C58.6102 50.524 58.6102 51.5122 59.1876 52.171C59.4763 52.4593 59.8888 52.624 60.3013 52.624C60.7137 52.624 61.1262 52.4593 61.4149 52.171C61.7036 51.8416 61.8686 51.4299 61.8686 51.0181Z" fill="#FAFAFA"/>
<path d="M65.1287 46.4056C64.9637 46.3232 64.7987 46.2409 64.6337 46.2409C64.3862 46.2409 64.2625 46.4879 64.2625 46.982V48.8761H65.0874V49.535H64.2625V53.1173H63.5201V49.535H62.9426V48.8761H63.5201V46.8997C63.5201 46.035 63.8913 45.582 64.5925 45.582C64.7575 45.582 64.9637 45.6232 65.0874 45.7056V46.4056H65.1287Z" fill="#FAFAFA"/>
<path d="M67.0253 49.5347H66.3653V53.1582H65.6641V49.5347H65.1692V48.8759H65.6641V47.0229H66.3653V48.8759H67.0253V49.5347Z" fill="#FAFAFA"/>
<path d="M73.7888 48.8771L71.8502 53.3242L70.4066 50.1948L68.9217 53.3242L66.9832 48.8771H67.7256L68.9217 51.7595L70.4066 48.7124L71.8502 51.7595L73.0464 48.8771H73.7888Z" fill="#FAFAFA"/>
<path d="M78.3688 53.1172H77.6676V52.4172C77.3376 52.9525 76.7602 53.2819 76.1002 53.2819C75.5228 53.2819 74.9866 53.076 74.6153 52.6231C73.8317 51.676 73.8317 50.3172 74.6153 49.3702C74.9866 48.9584 75.5228 48.7113 76.1002 48.7525C76.4302 48.7525 76.7189 48.8349 77.0076 48.9996C77.2551 49.1643 77.5026 49.3702 77.6263 49.6172V48.876H78.3275V53.1172H78.3688ZM77.7088 51.0172C77.7501 50.6054 77.5851 50.1525 77.2964 49.8231C77.0076 49.5349 76.6364 49.3702 76.224 49.3702C75.8115 49.3702 75.4403 49.5349 75.1928 49.8231C74.9041 50.1525 74.7803 50.5643 74.7803 50.976C74.7803 51.3878 74.9041 51.8407 75.1928 52.1702C75.4403 52.4584 75.8527 52.6643 76.224 52.6231C76.6364 52.6231 77.0076 52.4584 77.2551 52.1702C77.5851 51.8407 77.7088 51.429 77.7088 51.0172Z" fill="#FAFAFA"/>
<path d="M81.9143 48.8765L81.708 49.5765C81.5843 49.4529 81.4193 49.4118 81.2543 49.4118C80.9244 49.4118 80.6356 49.6176 80.5119 49.9059C80.3469 50.2353 80.2644 50.6059 80.2644 50.9765V53.1176H79.5632V48.8765H80.2644V49.5353C80.4294 49.0823 80.8419 48.7941 81.3368 48.7529C81.5431 48.7529 81.7493 48.7941 81.9143 48.8765Z" fill="#FAFAFA"/>
<path d="M86.4118 51.1823H82.8234C82.8646 51.5529 83.0296 51.9235 83.2771 52.2117C83.5246 52.4588 83.8958 52.6235 84.267 52.6235C84.8032 52.6647 85.3394 52.4176 85.6281 51.9647L86.1643 52.3352C85.7519 52.9529 85.0094 53.3235 84.267 53.3235C83.6896 53.3235 83.1534 53.0764 82.7409 52.6647C82.3284 52.2117 82.1222 51.6352 82.1222 51.0588C82.1222 50.4823 82.3284 49.9058 82.7409 49.4529C83.5246 48.6294 84.8032 48.5882 85.6694 49.3294C85.7106 49.3705 85.7519 49.4117 85.7931 49.4529C86.2056 49.8647 86.4118 50.4411 86.4118 51.0588V51.1823ZM85.7519 50.6058C85.6694 50.2764 85.4631 49.9882 85.2157 49.7411C84.9682 49.5352 84.6382 49.3705 84.3082 49.3705C83.9783 49.3705 83.6483 49.4941 83.4008 49.7411C83.1533 49.947 82.9471 50.2764 82.8646 50.6058H85.7519Z" fill="#FAFAFA"/>
<path d="M94.0408 53.1178H93.3808V52.3766C93.0508 52.9119 92.4322 53.2414 91.7722 53.2414C91.1948 53.2414 90.6998 53.0355 90.3286 52.5825C89.9161 52.1296 89.7099 51.5943 89.7512 50.9766C89.7099 50.359 89.9161 49.7825 90.3286 49.3296C91.0298 48.5472 92.2672 48.4649 93.0921 49.2061C93.2158 49.3296 93.3396 49.4531 93.4221 49.5766C93.4221 49.4943 93.4221 49.3708 93.4221 49.1649C93.4221 48.959 93.4221 48.7943 93.4221 48.7119V45.7061H94.1232V53.1178H94.0408ZM93.3808 50.9355C93.3808 50.5237 93.2571 50.1119 92.9684 49.8237C92.6796 49.5355 92.3084 49.3708 91.9372 49.3708C91.5247 49.3708 91.1535 49.5355 90.906 49.8237C90.6173 50.1531 90.4936 50.5649 90.4936 50.9766C90.4936 51.4296 90.6173 51.8413 90.906 52.1708C91.1535 52.459 91.566 52.6649 91.9372 52.6237C92.3497 52.6237 92.7209 52.459 93.0096 52.1708C93.2571 51.8413 93.4221 51.3884 93.3808 50.9355Z" fill="#FAFAFA"/>
<path d="M99.1561 51.1823H95.5676C95.6089 51.5529 95.7739 51.9235 96.0213 52.2117C96.2688 52.4588 96.64 52.6235 97.0113 52.6235C97.5475 52.6647 98.0837 52.4176 98.3724 51.9647L98.9086 52.3352C98.4961 52.9529 97.7537 53.3235 97.0113 53.3235C96.4338 53.3235 95.8976 53.0764 95.4851 52.6647C94.6602 51.7588 94.6602 50.3588 95.4851 49.4529C96.2688 48.6294 97.5475 48.5882 98.4136 49.3294C98.4549 49.3705 98.4961 49.4117 98.5374 49.4529C98.9498 49.8647 99.1561 50.4411 99.1561 51.0588V51.1823ZM98.4961 50.6058C98.4136 50.2764 98.2074 49.9882 97.9599 49.7411C97.7124 49.5352 97.3825 49.3705 97.0525 49.3705C96.7225 49.3705 96.3926 49.4941 96.1451 49.7411C95.8976 49.947 95.6914 50.2764 95.6089 50.6058H98.4961Z" fill="#FAFAFA"/>
<path d="M103.527 48.876L101.424 53.2819L99.3616 48.876H100.104L101.424 51.8407L102.785 48.876H103.527Z" fill="#FAFAFA"/>
<path d="M107.982 51.1829H104.394C104.435 51.5535 104.6 51.9241 104.847 52.2124C105.095 52.4594 105.466 52.6241 105.837 52.6241C106.373 52.6653 106.91 52.4182 107.198 51.9241L107.735 52.2947C107.322 52.9124 106.58 53.2829 105.837 53.2829C105.26 53.2829 104.724 53.0359 104.311 52.6241C103.486 51.7182 103.486 50.3182 104.311 49.4124C105.095 48.5888 106.373 48.5477 107.24 49.2888C107.281 49.33 107.322 49.3712 107.363 49.4124C107.776 49.8241 107.982 50.4006 107.982 51.0182V51.1829ZM107.322 50.6065C107.24 50.2771 107.033 49.9888 106.786 49.7418C106.538 49.5359 106.208 49.3712 105.878 49.3712C105.548 49.3712 105.218 49.4947 104.971 49.7418C104.724 49.9477 104.517 50.2771 104.435 50.6065H107.322Z" fill="#FAFAFA"/>
<path d="M109.591 53.1587H108.848V45.6646H109.591V53.1587Z" fill="#FAFAFA"/>
<path d="M115.036 51.0181C115.036 51.6357 114.788 52.2122 114.376 52.624C113.468 53.4887 112.025 53.4887 111.117 52.624C110.21 51.7593 110.21 50.3181 111.117 49.4122C112.025 48.5475 113.468 48.5475 114.376 49.4122C114.788 49.824 115.036 50.4004 115.036 51.0181ZM114.293 51.0181C114.293 50.6063 114.128 50.1946 113.84 49.9063C113.221 49.2887 112.231 49.2887 111.612 49.9063C111.035 50.524 111.035 51.5122 111.612 52.171C111.901 52.4593 112.314 52.624 112.726 52.624C113.139 52.624 113.551 52.4593 113.84 52.171C114.128 51.8416 114.293 51.4299 114.293 51.0181Z" fill="#FAFAFA"/>
<path d="M120.192 51.0183C120.233 51.6359 120.027 52.2124 119.614 52.6653C119.243 53.0771 118.707 53.3242 118.129 53.283C117.469 53.283 116.851 52.9948 116.521 52.4183C116.521 52.4595 116.521 52.583 116.562 52.7477C116.562 52.9124 116.603 53.0359 116.603 53.1183V55.6712H115.902V48.8359H116.562V49.5771C116.892 49.0418 117.511 48.7124 118.171 48.7124C118.748 48.7124 119.284 48.9595 119.656 49.3712C120.027 49.8653 120.233 50.4418 120.192 51.0183ZM119.449 51.0183C119.449 50.6065 119.326 50.1536 119.037 49.8653C118.789 49.5771 118.377 49.4124 118.006 49.4124C117.593 49.4124 117.222 49.5771 116.975 49.8653C116.686 50.1948 116.562 50.6065 116.562 51.0183C116.562 51.4301 116.686 51.883 116.975 52.1712C117.263 52.5006 117.634 52.6653 118.047 52.6242C118.459 52.6242 118.831 52.4595 119.078 52.1712C119.367 51.8418 119.491 51.4301 119.449 51.0183Z" fill="#FAFAFA"/>
<path d="M126.75 53.1176H126.049V50.5235C126.049 49.7412 125.801 49.3706 125.265 49.3706C124.605 49.3706 124.275 49.8235 124.275 50.7706V53.1176H123.574V50.5235C123.574 49.7412 123.326 49.3706 122.79 49.3706C122.501 49.3706 122.213 49.5353 122.048 49.7823C121.842 50.1118 121.759 50.5235 121.759 50.9353V53.1588H121.058V48.8765H121.759V49.5353C122.007 49.0823 122.419 48.7941 122.955 48.7529C123.203 48.7529 123.491 48.8353 123.698 49C123.904 49.1235 124.028 49.3294 124.11 49.5353C124.234 49.3294 124.399 49.1647 124.605 49C124.853 48.8353 125.1 48.7529 125.389 48.7529C126.337 48.7529 126.791 49.3294 126.791 50.4823L126.75 53.1176Z" fill="#FAFAFA"/>
<path d="M131.865 51.1823H128.277C128.318 51.5529 128.483 51.9235 128.73 52.2117C128.978 52.4588 129.349 52.6235 129.72 52.6235C130.256 52.6647 130.793 52.4176 131.081 51.9647L131.617 52.3352C131.205 52.9529 130.463 53.3235 129.72 53.3235C129.143 53.3235 128.606 53.0764 128.194 52.6647C127.782 52.2117 127.575 51.6352 127.575 51.0588C127.575 50.4823 127.782 49.9058 128.194 49.4529C128.978 48.6294 130.256 48.5882 131.122 49.3294C131.164 49.3705 131.205 49.4117 131.246 49.4529C131.659 49.8647 131.865 50.4411 131.865 51.0588V51.1823ZM131.205 50.6058C131.122 50.2764 130.916 49.9882 130.669 49.7411C130.421 49.5352 130.091 49.3705 129.761 49.3705C129.431 49.3705 129.101 49.4941 128.854 49.7411C128.565 49.947 128.4 50.2764 128.318 50.6058H131.205Z" fill="#FAFAFA"/>
<path d="M136.236 53.1183H135.534V50.5653C135.576 50.2359 135.493 49.9477 135.328 49.6595C135.122 49.4536 134.875 49.3712 134.586 49.3712C134.256 49.3712 133.926 49.5359 133.761 49.8242C133.555 50.1536 133.431 50.5653 133.472 50.9771V53.1183H132.771V48.8359H133.431V49.4536C133.72 49.0006 134.215 48.7124 134.751 48.7124C135.741 48.7124 136.236 49.2889 136.236 50.4418V53.1183Z" fill="#FAFAFA"/>
<path d="M138.669 49.5347H138.01V53.1582H137.308V49.5347H136.813V48.8759H137.308V47.0229H138.01V48.8759H138.669V49.5347Z" fill="#FAFAFA"/>
<path d="M21.2006 48.176C9.48665 48.176 0 38.7055 0 27.0114C0 15.3173 9.48665 5.84668 21.2418 5.84668C32.9558 5.84668 42.4424 15.3173 42.4424 27.0114C42.4424 38.7055 32.9558 48.176 21.2006 48.176ZM21.2006 7.0408C10.1466 7.0408 1.19614 15.9761 1.19614 27.0114C1.19614 38.0467 10.1466 46.9819 21.2006 46.9819C32.2546 46.9819 41.205 38.0467 41.205 27.0114C41.205 15.9761 32.2546 7.0408 21.2006 7.0408Z" fill="#FAFAFA"/>
<path d="M16.4153 9.92309C16.4153 12.8878 14.023 15.2349 11.0533 15.2349C8.08358 15.2349 5.73254 12.8466 5.73254 9.92309C5.73254 6.99956 8.12483 4.61133 11.0533 4.61133C13.9818 4.61133 16.4153 6.99956 16.4153 9.92309Z" fill="#FAFAFA"/>
<path d="M44.5869 27.1768C44.5869 28.7003 43.3495 29.9356 41.8234 29.9356C40.2973 29.9356 39.0599 28.7003 39.0599 27.1768C39.0599 25.6533 40.2973 24.418 41.8234 24.418C43.3495 24.418 44.5869 25.6533 44.5869 27.1768C44.6281 27.1768 44.6281 27.1768 44.5869 27.1768Z" fill="#FAFAFA"/>
</svg>
