<svg width="108" height="96" viewBox="0 0 108 96" fill="none" xmlns="http://www.w3.org/2000/svg">
<path d="M54.0008 57.6088C59.3586 57.6088 63.7019 53.2659 63.7019 47.9087C63.7019 42.5514 59.3586 38.2085 54.0008 38.2085C48.643 38.2085 44.2997 42.5514 44.2997 47.9087C44.2997 53.2659 48.643 57.6088 54.0008 57.6088Z" fill="#FAFAFA"/>
<path fill-rule="evenodd" clip-rule="evenodd" d="M54.0009 28.1865C67.0259 28.1865 79.1259 30.0553 88.2492 33.1958C99.2415 36.9798 106 42.7154 106 47.909C106 53.321 98.8373 59.4143 87.033 63.325C78.1087 66.2814 66.365 67.8248 54.0009 67.8248C41.3243 67.8248 29.3202 66.3761 20.2953 63.2925C8.87724 59.3901 2 53.218 2 47.909C2 42.7575 8.45297 37.0663 19.2908 33.2881C28.4481 30.0957 40.8468 28.1865 53.9991 28.1865H54.0009Z" stroke="#FAFAFA" stroke-width="2.73408"/>
<path fill-rule="evenodd" clip-rule="evenodd" d="M36.8296 38.1044C43.3367 26.8224 51.0002 17.2752 58.2789 10.9416C67.0485 3.31056 75.394 0.322029 79.8933 2.91631C84.5823 5.62002 86.2829 14.8685 83.7738 27.0465C81.8787 36.2538 77.3471 47.1967 71.1703 57.9064C64.8372 68.8867 57.5856 78.5608 50.4061 84.8356C41.3213 92.7764 32.5381 95.6501 27.9387 92.9978C23.4756 90.4262 21.7688 81.9919 23.9099 70.7167C25.7189 61.19 30.2588 49.4967 36.8274 38.1043L36.8296 38.1044Z" stroke="#FAFAFA" stroke-width="2.73408"/>
<path fill-rule="evenodd" clip-rule="evenodd" d="M36.8469 57.9351C30.3215 46.6659 25.8786 35.2568 24.0242 25.7885C21.7918 14.3804 23.3702 5.65806 27.8654 3.05624C32.5497 0.344597 41.4124 3.49014 50.7109 11.7457C57.7413 17.9873 64.9604 27.3762 71.1552 38.0758C77.5065 49.0455 82.2666 60.1591 84.1184 69.5122C86.4616 81.3482 84.5651 90.3917 79.9699 93.0515C75.5112 95.6325 67.3521 92.8999 58.6521 85.4139C51.3013 79.0892 43.4368 69.3163 36.8469 57.9349V57.9351Z" stroke="#FAFAFA" stroke-width="2.73408"/>
</svg>
