<svg width="140" height="140" viewBox="0 0 140 140" fill="none" xmlns="http://www.w3.org/2000/svg">
<path d="M106.334 38.856C113.486 38.856 119.31 33.0321 119.31 25.8794C119.31 18.7268 113.491 12.9028 106.334 12.9028C99.181 12.9028 93.3571 18.7268 93.3571 25.8794C93.3571 33.0321 99.181 38.856 106.334 38.856ZM106.334 18.0934C110.626 18.0934 114.12 21.5867 114.12 25.8794C114.12 30.1722 110.631 33.6654 106.334 33.6654C102.041 33.6654 98.5476 30.1722 98.5476 25.8794C98.5476 21.5867 102.046 18.0934 106.334 18.0934Z" fill="#202020"/>
<path d="M128.939 82.0165L125.612 55.4196C124.807 48.9365 119.269 44.052 112.739 44.052H99.9229C98.4799 44.052 97.0266 44.3063 95.599 44.815C94.2494 45.2927 93.5435 46.7771 94.0212 48.1268C94.5039 49.4764 95.9832 50.1874 97.3329 49.7046C98.1998 49.3983 99.0718 49.2426 99.9229 49.2426H112.739C116.658 49.2426 119.975 52.1752 120.462 56.0631L123.79 82.6601C123.883 83.4076 123.66 84.1343 123.162 84.7C122.663 85.2657 121.973 85.5772 121.215 85.5772H119.31C117.945 85.5772 116.819 86.6256 116.72 87.9857L114.296 121.912H98.366L96.4973 95.7666C96.3988 94.3391 95.1426 93.2179 93.7255 93.3634C92.298 93.462 91.2184 94.7077 91.3223 96.1352L93.3623 124.689C93.4662 126.044 94.5976 127.098 95.9523 127.098H116.715C118.075 127.098 119.206 126.044 119.3 124.695L121.724 90.7527C123.769 90.6176 125.684 89.6833 127.05 88.1366C128.529 86.4597 129.219 84.2329 128.939 82.0165Z" fill="#202020"/>
<path d="M46.236 93.9546C44.7879 93.8196 43.5681 94.9306 43.4642 96.3578L41.6372 121.906H25.7017L23.2829 87.9801C23.1841 86.6256 22.0527 85.5718 20.6875 85.5718H18.7826C18.0247 85.5718 17.3344 85.2604 16.8361 84.6947C16.3378 84.129 16.1147 83.4073 16.2081 82.6547L19.5354 56.0578C20.0182 52.1699 23.335 49.2372 27.2591 49.2372H40.0749C40.6562 49.2372 41.2739 49.3255 42.0319 49.528C43.4178 49.8706 44.8399 49.0608 45.2034 47.6749C45.5667 46.289 44.7363 44.8668 43.3504 44.5033C42.1513 44.1919 41.1131 44.0466 40.0698 44.0466H27.2589C20.7291 44.0466 15.1957 48.9311 14.386 55.4142L11.0589 82.0109C10.7837 84.2272 11.4689 86.454 12.9482 88.1307C14.3135 89.6774 16.2288 90.6118 18.2739 90.7468L20.698 124.689C20.7965 126.043 21.9282 127.097 23.2829 127.097H44.0455C45.4054 127.097 46.537 126.043 46.6356 124.689L48.6339 96.7265C48.7378 95.2992 47.6582 94.0585 46.236 93.9546Z" fill="#202020"/>
<path d="M33.6641 38.856C40.8167 38.856 46.6407 33.0321 46.6407 25.8794C46.6407 18.7268 40.8218 12.9028 33.6641 12.9028C26.5114 12.9028 20.6875 18.7268 20.6875 25.8794C20.6875 33.0321 26.5114 38.856 33.6641 38.856ZM33.6641 18.0934C37.9568 18.0934 41.4501 21.5867 41.4501 25.8794C41.4501 30.1722 37.962 33.6654 33.6641 33.6654C29.3767 33.6654 25.8781 30.1722 25.8781 25.8794C25.8781 21.5867 29.3767 18.0934 33.6641 18.0934Z" fill="#202020"/>
<path d="M92.8532 81.6115L89.4118 51.4642C88.5969 44.275 82.9027 38.856 76.1756 38.856H62.9238C56.2072 38.856 50.518 44.275 49.6981 51.4642L46.2566 81.6115C45.9712 84.1342 46.7498 86.6413 48.39 88.4788C49.8071 90.062 51.6808 90.9859 53.7207 91.1L56.586 129.885C56.6845 131.24 57.8162 132.288 59.1709 132.288H79.9335C81.2934 132.288 82.425 131.24 82.5185 129.885L85.3837 91.1C87.4185 90.9859 89.2974 90.0671 90.7145 88.4788C92.3653 86.636 93.1388 84.1342 92.8532 81.6115ZM86.8528 85.0218C86.5519 85.3539 85.9081 85.9199 84.9531 85.9199H82.9754C81.6155 85.9199 80.4839 86.9683 80.3854 88.3231L77.5252 127.097H61.5846L58.7298 88.3231C58.6259 86.9683 57.4996 85.9199 56.1398 85.9199H54.1672C53.2173 85.9199 52.5684 85.3542 52.2674 85.0218C51.6083 84.2795 51.2969 83.2517 51.4161 82.1982L54.8575 52.0508C55.3765 47.4882 58.849 44.0468 62.9343 44.0468H76.186C80.2659 44.0468 83.7384 47.4882 84.2628 52.0508L87.7042 82.1982C87.8234 83.2517 87.512 84.2795 86.8528 85.0218Z" fill="#FAFAFA" fill-opacity="0.75"/>
<path d="M69.5526 33.6653C76.7053 33.6653 82.5292 27.8414 82.5292 20.6887C82.5292 13.5361 76.7106 7.71191 69.5526 7.71191C62.4 7.71191 56.576 13.5358 56.576 20.6885C56.576 27.8412 62.4 33.6653 69.5526 33.6653ZM69.5526 12.9025C73.8454 12.9025 77.3386 16.3957 77.3386 20.6885C77.3386 24.9813 73.8454 28.4745 69.5526 28.4745C65.2599 28.4745 61.7666 24.9813 61.7666 20.6885C61.7666 16.396 65.2652 12.9025 69.5526 12.9025Z" fill="#FAFAFA" fill-opacity="0.75"/>
</svg>
