<svg width="28" height="29" viewBox="0 0 28 29" fill="none" xmlns="http://www.w3.org/2000/svg">
<g opacity="0.75">
<path d="M25 7.13708C24.191 7.49789 23.3219 7.74168 22.4082 7.85187C23.3509 7.28413 24.0562 6.39056 24.3925 5.33791C23.5068 5.86741 22.5374 6.24013 21.5265 6.43984C20.8467 5.70932 19.9462 5.22511 18.965 5.06241C17.9837 4.8997 16.9766 5.06759 16.0999 5.54002C15.2231 6.01244 14.5259 6.76297 14.1164 7.67508C13.7069 8.58719 13.6081 9.60984 13.8353 10.5843C12.0406 10.4936 10.2849 10.0241 8.68208 9.20628C7.07931 8.38847 5.66531 7.24061 4.53184 5.83719C4.14428 6.51005 3.92143 7.29018 3.92143 8.12102C3.921 8.86896 4.104 9.60545 4.45421 10.2651C4.80442 10.9248 5.311 11.4873 5.92901 11.9027C5.21228 11.8797 4.51137 11.6848 3.88461 11.3342V11.3927C3.88454 12.4417 4.24508 13.4584 4.90505 14.2704C5.56502 15.0823 6.48377 15.6394 7.50542 15.8472C6.84054 16.0283 6.14346 16.055 5.46684 15.9252C5.75508 16.8278 6.31656 17.6171 7.07267 18.1826C7.82878 18.7481 8.74166 19.0615 9.68352 19.0789C8.08466 20.3421 6.11008 21.0273 4.07742 21.0243C3.71736 21.0244 3.3576 21.0033 3 20.9609C5.06326 22.2961 7.46505 23.0047 9.918 23.0019C18.2215 23.0019 22.7609 16.0803 22.7609 10.0772C22.7609 9.88215 22.756 9.68517 22.7473 9.49014C23.6302 8.84749 24.3924 8.05168 24.9981 7.14001L25 7.13708Z" fill="#FAFAFA"/>
</g>
</svg>
