<svg width="139" height="57" fill="none">
<g clip-path="url(#clip0_161:548)">
<path d="M95.0307 20.8372H93.7108L79.4396 2.92548V20.8372H77.9135V0.00195312H79.2333L93.5046 17.9549V0.00195312H95.0307V20.8372Z" fill="#FAFAFA" fill-opacity="0.25"/>
<path d="M71.6036 0.00195312V12.1078C71.6036 15.1137 70.8611 17.3372 69.3763 18.8196C67.8914 20.302 65.8291 21.1255 63.7255 21.0431C61.2095 21.0431 59.1472 20.2608 57.5798 18.6961C56.0125 17.1314 55.27 14.8255 55.27 11.902V0.00195312H56.9199V11.6137C56.9199 16.5961 59.5596 19.5196 63.7255 19.5196C67.5202 19.5196 69.9949 16.8843 69.9949 11.7372V0.00195312H71.6036Z" fill="#FAFAFA" fill-opacity="0.25"/>
<path d="M102.373 20.8372V0.00195312H104.023V20.8372H102.373Z" fill="#FAFAFA" fill-opacity="0.25"/>
<path d="M108.314 1.56666V0.00195312H125.39V1.56666H117.677V20.8372H116.027V1.56666H108.314Z" fill="#FAFAFA" fill-opacity="0.25"/>
<path d="M54.5694 28.167C54.5281 26.767 55.1468 25.367 56.2192 24.4611C57.3329 23.4729 58.8177 22.9788 60.6738 22.9788C62.9836 22.9788 65.0872 23.7611 66.2833 25.0788L65.3759 26.3141C64.1385 25.1199 62.4474 24.4611 60.7151 24.5435C57.9928 24.5435 56.2605 25.9846 56.2605 28.2082C56.2605 34.0141 67.0258 31.667 67.0258 38.8729C67.067 40.4376 66.3246 41.92 65.0872 42.8259C63.726 43.8553 62.0762 44.3906 60.3439 44.3494C59.024 44.3494 57.7453 44.0612 56.5492 43.5259C55.4768 43.1141 54.5694 42.3318 53.9507 41.3435L54.9406 40.1905C56.2605 41.7965 58.2403 42.7435 60.3439 42.7847C61.5812 42.8259 62.8186 42.4553 63.8085 41.7553C64.7572 41.1376 65.2934 40.0258 65.2522 38.9141C65.3347 33.0258 54.5694 35.1258 54.5694 28.167Z" fill="#FAFAFA" fill-opacity="0.25"/>
<path d="M73.6246 44.0604H71.9747V23.2252C72.3459 23.2252 73.2121 23.2252 74.4908 23.184C75.7694 23.1428 76.6768 23.1428 77.048 23.1428C82.8225 23.1428 84.4724 26.3134 84.4724 29.4016C84.5136 31.0899 83.8124 32.7369 82.6163 33.9311C81.3789 35.1664 79.5228 35.784 77.0893 35.784C75.8519 35.784 74.6557 35.7428 73.6246 35.6605V44.0604ZM73.6246 24.7899V34.1369C74.9032 34.2193 76.0581 34.3016 77.0068 34.3016C80.7189 34.3016 82.74 32.4075 82.74 29.4428C82.74 26.6016 80.9664 24.7487 77.213 24.7487C76.1406 24.7487 74.9445 24.7487 73.6246 24.7899Z" fill="#FAFAFA" fill-opacity="0.25"/>
<path d="M84.8431 44.0608L93.9173 23.0608H95.2784L104.353 44.0608H102.579L99.5268 36.9784H89.5452L86.493 44.0608H84.8431ZM94.536 25.3255L90.2052 35.4137H98.8669L94.536 25.3255Z" fill="#FAFAFA" fill-opacity="0.25"/>
<path d="M122.79 42.0436C121.346 43.4847 118.83 44.3494 116.314 44.3494C113.179 44.3494 110.704 43.3612 108.766 41.4259C106.827 39.4905 105.879 36.8964 105.879 33.6435C105.879 30.5964 106.786 28.0435 108.683 26.0258C110.581 24.0082 113.014 22.9788 116.108 22.9788C118.747 22.9788 120.851 23.6376 122.418 24.9552L121.635 26.1905C120.191 25.0788 118.335 24.5435 116.108 24.5435C113.757 24.4611 111.488 25.4082 109.921 27.1376C108.353 28.8258 107.57 31.0493 107.57 33.6846C107.57 36.4023 108.395 38.5846 110.003 40.2729C111.612 41.9612 113.798 42.7847 116.396 42.7847C118.459 42.8259 120.48 42.1259 122.088 40.8082L122.79 42.0436Z" fill="#FAFAFA" fill-opacity="0.25"/>
<path d="M127.12 44.0607V23.2256H138.628V24.7903H128.77V32.7374H137.762V34.2609H128.77V42.496H138.958V44.0607H127.12Z" fill="#FAFAFA" fill-opacity="0.25"/>
<path d="M57.4556 51.8842C57.4556 52.2548 57.3318 52.6254 57.0431 52.8725C56.7544 53.1607 56.3832 53.2842 56.012 53.2842C55.3933 53.2842 54.8158 52.9548 54.5271 52.3783L55.0633 52.0078C55.187 52.4195 55.5583 52.6666 56.012 52.7078C56.2182 52.7078 56.4244 52.6254 56.5482 52.5019C56.6719 52.3783 56.7544 52.1725 56.7544 52.0078C56.7544 51.843 56.6719 51.6783 56.5482 51.5548C56.3007 51.3901 56.0532 51.2666 55.7645 51.143C55.1045 50.8548 54.7333 50.4842 54.7333 49.9901C54.7333 49.6607 54.8571 49.3725 55.1045 49.1666C55.352 48.9607 55.6407 48.8372 55.9707 48.8372C56.4657 48.8372 56.8781 49.0842 57.0844 49.5372L56.5894 49.9077C56.4657 49.6607 56.2182 49.496 55.9707 49.496C55.8057 49.496 55.682 49.5372 55.5583 49.6607C55.352 49.8254 55.3108 50.1136 55.4758 50.2783C55.4758 50.3195 55.517 50.3195 55.5583 50.3607C55.7645 50.5254 55.9707 50.6077 56.2182 50.6901C56.5482 50.8136 56.8781 50.9783 57.1256 51.2254C57.3731 51.3489 57.4968 51.6372 57.4556 51.8842Z" fill="#FAFAFA" fill-opacity="0.25"/>
<path d="M62.611 51.02C62.611 51.6377 62.3636 52.2142 61.9511 52.6259C61.0437 53.4906 59.6001 53.4906 58.6926 52.6259C57.7852 51.7612 57.7852 50.32 58.6926 49.4142C59.6001 48.5494 61.0437 48.5494 61.9511 49.4142C62.3636 49.8259 62.611 50.4024 62.611 51.02ZM61.8686 51.02C61.8686 50.6083 61.7036 50.1965 61.4149 49.9083C61.1262 49.62 60.7137 49.4553 60.3013 49.4553C59.8888 49.4553 59.4763 49.62 59.1876 49.9083C58.6102 50.5259 58.6102 51.5142 59.1876 52.173C59.4763 52.4612 59.8888 52.6259 60.3013 52.6259C60.7137 52.6259 61.1262 52.4612 61.4149 52.173C61.7036 51.8436 61.8686 51.4318 61.8686 51.02Z" fill="#FAFAFA" fill-opacity="0.25"/>
<path d="M65.1287 46.4075C64.9637 46.3252 64.7987 46.2428 64.6337 46.2428C64.3862 46.2428 64.2625 46.4899 64.2625 46.984V48.8781H65.0874V49.5369H64.2625V53.1193H63.5201V49.5369H62.9426V48.8781H63.5201V46.9016C63.5201 46.0369 63.8913 45.584 64.5925 45.584C64.7575 45.584 64.9637 45.6252 65.0874 45.7075V46.4075H65.1287Z" fill="#FAFAFA" fill-opacity="0.25"/>
<path d="M67.0253 49.5369H66.3653V53.1604H65.6641V49.5369H65.1692V48.8781H65.6641V47.0251H66.3653V48.8781H67.0253V49.5369Z" fill="#FAFAFA" fill-opacity="0.25"/>
<path d="M73.7888 48.8788L71.8502 53.3259L70.4066 50.1965L68.9217 53.3259L66.9832 48.8788H67.7256L68.9217 51.7612L70.4066 48.7141L71.8502 51.7612L73.0464 48.8788H73.7888Z" fill="#FAFAFA" fill-opacity="0.25"/>
<path d="M78.3688 53.1192H77.6676V52.4192C77.3376 52.9545 76.7602 53.2839 76.1002 53.2839C75.5228 53.2839 74.9866 53.078 74.6153 52.6251C73.8317 51.678 73.8317 50.3192 74.6153 49.3721C74.9866 48.9603 75.5228 48.7133 76.1002 48.7545C76.4302 48.7545 76.7189 48.8368 77.0076 49.0015C77.2551 49.1662 77.5026 49.3721 77.6263 49.6192V48.878H78.3275V53.1192H78.3688ZM77.7088 51.0192C77.7501 50.6074 77.5851 50.1545 77.2964 49.825C77.0076 49.5368 76.6364 49.3721 76.224 49.3721C75.8115 49.3721 75.4403 49.5368 75.1928 49.825C74.9041 50.1545 74.7803 50.5662 74.7803 50.978C74.7803 51.3898 74.9041 51.8427 75.1928 52.1721C75.4403 52.4603 75.8527 52.6662 76.224 52.6251C76.6364 52.6251 77.0076 52.4603 77.2551 52.1721C77.5851 51.8427 77.7088 51.4309 77.7088 51.0192Z" fill="#FAFAFA" fill-opacity="0.25"/>
<path d="M81.9143 48.8784L81.708 49.5784C81.5843 49.4549 81.4193 49.4137 81.2543 49.4137C80.9244 49.4137 80.6356 49.6196 80.5119 49.9078C80.3469 50.2372 80.2644 50.6078 80.2644 50.9784V53.1196H79.5632V48.8784H80.2644V49.5372C80.4294 49.0843 80.8419 48.7961 81.3368 48.7549C81.5431 48.7549 81.7493 48.7961 81.9143 48.8784Z" fill="#FAFAFA" fill-opacity="0.25"/>
<path d="M86.4118 51.1843H82.8234C82.8646 51.5548 83.0296 51.9254 83.2771 52.2137C83.5246 52.4607 83.8958 52.6254 84.267 52.6254C84.8032 52.6666 85.3394 52.4196 85.6281 51.9666L86.1643 52.3372C85.7519 52.9548 85.0094 53.3254 84.267 53.3254C83.6896 53.3254 83.1534 53.0784 82.7409 52.6666C82.3284 52.2137 82.1222 51.6372 82.1222 51.0607C82.1222 50.4843 82.3284 49.9078 82.7409 49.4548C83.5246 48.6313 84.8032 48.5901 85.6694 49.3313C85.7106 49.3725 85.7519 49.4137 85.7931 49.4548C86.2056 49.8666 86.4118 50.4431 86.4118 51.0607V51.1843ZM85.7519 50.6078C85.6694 50.2784 85.4631 49.9901 85.2157 49.7431C84.9682 49.5372 84.6382 49.3725 84.3082 49.3725C83.9783 49.3725 83.6483 49.496 83.4008 49.7431C83.1533 49.949 82.9471 50.2784 82.8646 50.6078H85.7519Z" fill="#FAFAFA" fill-opacity="0.25"/>
<path d="M94.0408 53.1195H93.3808V52.3784C93.0508 52.9136 92.4322 53.2431 91.7722 53.2431C91.1948 53.2431 90.6998 53.0372 90.3286 52.5842C89.9161 52.1313 89.7099 51.596 89.7512 50.9784C89.7099 50.3607 89.9161 49.7842 90.3286 49.3313C91.0298 48.5489 92.2672 48.4666 93.0921 49.2078C93.2158 49.3313 93.3396 49.4548 93.4221 49.5784C93.4221 49.496 93.4221 49.3725 93.4221 49.1666C93.4221 48.9607 93.4221 48.796 93.4221 48.7136V45.7078H94.1232V53.1195H94.0408ZM93.3808 50.9372C93.3808 50.5254 93.2571 50.1136 92.9684 49.8254C92.6796 49.5372 92.3084 49.3725 91.9372 49.3725C91.5247 49.3725 91.1535 49.5372 90.906 49.8254C90.6173 50.1548 90.4936 50.5666 90.4936 50.9784C90.4936 51.4313 90.6173 51.8431 90.906 52.1725C91.1535 52.4607 91.566 52.6666 91.9372 52.6254C92.3497 52.6254 92.7209 52.4607 93.0096 52.1725C93.2571 51.8431 93.4221 51.3901 93.3808 50.9372Z" fill="#FAFAFA" fill-opacity="0.25"/>
<path d="M99.1561 51.1843H95.5676C95.6089 51.5548 95.7739 51.9254 96.0213 52.2137C96.2688 52.4607 96.64 52.6254 97.0113 52.6254C97.5475 52.6666 98.0837 52.4196 98.3724 51.9666L98.9086 52.3372C98.4961 52.9548 97.7537 53.3254 97.0113 53.3254C96.4338 53.3254 95.8976 53.0784 95.4851 52.6666C94.6602 51.7607 94.6602 50.3607 95.4851 49.4548C96.2688 48.6313 97.5475 48.5901 98.4136 49.3313C98.4549 49.3725 98.4961 49.4137 98.5374 49.4548C98.9498 49.8666 99.1561 50.4431 99.1561 51.0607V51.1843ZM98.4961 50.6078C98.4136 50.2784 98.2074 49.9901 97.9599 49.7431C97.7124 49.5372 97.3825 49.3725 97.0525 49.3725C96.7225 49.3725 96.3926 49.496 96.1451 49.7431C95.8976 49.949 95.6914 50.2784 95.6089 50.6078H98.4961Z" fill="#FAFAFA" fill-opacity="0.25"/>
<path d="M103.527 48.8779L101.424 53.2838L99.3616 48.8779H100.104L101.424 51.8426L102.785 48.8779H103.527Z" fill="#FAFAFA" fill-opacity="0.25"/>
<path d="M107.982 51.1847H104.394C104.435 51.5552 104.6 51.9258 104.847 52.2141C105.095 52.4611 105.466 52.6258 105.837 52.6258C106.373 52.667 106.91 52.4199 107.198 51.9258L107.735 52.2964C107.322 52.9141 106.58 53.2847 105.837 53.2847C105.26 53.2847 104.724 53.0376 104.311 52.6258C103.486 51.72 103.486 50.32 104.311 49.4141C105.095 48.5905 106.373 48.5494 107.24 49.2905C107.281 49.3317 107.322 49.3729 107.363 49.4141C107.776 49.8258 107.982 50.4023 107.982 51.02V51.1847ZM107.322 50.6082C107.24 50.2788 107.033 49.9905 106.786 49.7435C106.538 49.5376 106.208 49.3729 105.878 49.3729C105.548 49.3729 105.218 49.4964 104.971 49.7435C104.724 49.9494 104.517 50.2788 104.435 50.6082H107.322Z" fill="#FAFAFA" fill-opacity="0.25"/>
<path d="M109.591 53.1609H108.848V45.6667H109.591V53.1609Z" fill="#FAFAFA" fill-opacity="0.25"/>
<path d="M115.036 51.02C115.036 51.6377 114.788 52.2142 114.376 52.6259C113.468 53.4906 112.025 53.4906 111.117 52.6259C110.21 51.7612 110.21 50.32 111.117 49.4142C112.025 48.5494 113.468 48.5494 114.376 49.4142C114.788 49.8259 115.036 50.4024 115.036 51.02ZM114.293 51.02C114.293 50.6083 114.128 50.1965 113.84 49.9083C113.221 49.2906 112.231 49.2906 111.612 49.9083C111.035 50.5259 111.035 51.5142 111.612 52.173C111.901 52.4612 112.314 52.6259 112.726 52.6259C113.139 52.6259 113.551 52.4612 113.84 52.173C114.128 51.8436 114.293 51.4318 114.293 51.02Z" fill="#FAFAFA" fill-opacity="0.25"/>
<path d="M120.192 51.02C120.233 51.6376 120.027 52.2141 119.614 52.6671C119.243 53.0788 118.707 53.3259 118.129 53.2847C117.469 53.2847 116.851 52.9965 116.521 52.42C116.521 52.4612 116.521 52.5847 116.562 52.7494C116.562 52.9141 116.603 53.0376 116.603 53.12V55.6729H115.902V48.8376H116.562V49.5788C116.892 49.0435 117.511 48.7141 118.171 48.7141C118.748 48.7141 119.284 48.9612 119.656 49.3729C120.027 49.8671 120.233 50.4435 120.192 51.02ZM119.449 51.02C119.449 50.6082 119.326 50.1553 119.037 49.8671C118.789 49.5788 118.377 49.4141 118.006 49.4141C117.593 49.4141 117.222 49.5788 116.975 49.8671C116.686 50.1965 116.562 50.6082 116.562 51.02C116.562 51.4318 116.686 51.8847 116.975 52.1729C117.263 52.5023 117.634 52.6671 118.047 52.6259C118.459 52.6259 118.831 52.4612 119.078 52.1729C119.367 51.8435 119.491 51.4318 119.449 51.02Z" fill="#FAFAFA" fill-opacity="0.25"/>
<path d="M126.75 53.1196H126.049V50.5255C126.049 49.7431 125.801 49.3725 125.265 49.3725C124.605 49.3725 124.275 49.8255 124.275 50.7725V53.1196H123.574V50.5255C123.574 49.7431 123.326 49.3725 122.79 49.3725C122.501 49.3725 122.213 49.5372 122.048 49.7843C121.842 50.1137 121.759 50.5255 121.759 50.9372V53.1608H121.058V48.8784H121.759V49.5372C122.007 49.0843 122.419 48.7961 122.955 48.7549C123.203 48.7549 123.491 48.8372 123.698 49.0019C123.904 49.1255 124.028 49.3314 124.11 49.5372C124.234 49.3314 124.399 49.1666 124.605 49.0019C124.853 48.8372 125.1 48.7549 125.389 48.7549C126.337 48.7549 126.791 49.3314 126.791 50.4843L126.75 53.1196Z" fill="#FAFAFA" fill-opacity="0.25"/>
<path d="M131.865 51.1843H128.277C128.318 51.5548 128.483 51.9254 128.73 52.2137C128.978 52.4607 129.349 52.6254 129.72 52.6254C130.256 52.6666 130.793 52.4196 131.081 51.9666L131.617 52.3372C131.205 52.9548 130.463 53.3254 129.72 53.3254C129.143 53.3254 128.606 53.0784 128.194 52.6666C127.782 52.2137 127.575 51.6372 127.575 51.0607C127.575 50.4843 127.782 49.9078 128.194 49.4548C128.978 48.6313 130.256 48.5901 131.122 49.3313C131.164 49.3725 131.205 49.4137 131.246 49.4548C131.659 49.8666 131.865 50.4431 131.865 51.0607V51.1843ZM131.205 50.6078C131.122 50.2784 130.916 49.9901 130.669 49.7431C130.421 49.5372 130.091 49.3725 129.761 49.3725C129.431 49.3725 129.101 49.496 128.854 49.7431C128.565 49.949 128.4 50.2784 128.318 50.6078H131.205Z" fill="#FAFAFA" fill-opacity="0.25"/>
<path d="M136.236 53.12H135.534V50.5671C135.576 50.2376 135.493 49.9494 135.328 49.6612C135.122 49.4553 134.875 49.3729 134.586 49.3729C134.256 49.3729 133.926 49.5376 133.761 49.8259C133.555 50.1553 133.431 50.5671 133.472 50.9788V53.12H132.771V48.8376H133.431V49.4553C133.72 49.0023 134.215 48.7141 134.751 48.7141C135.741 48.7141 136.236 49.2906 136.236 50.4435V53.12Z" fill="#FAFAFA" fill-opacity="0.25"/>
<path d="M138.669 49.5369H138.01V53.1604H137.308V49.5369H136.813V48.8781H137.308V47.0251H138.01V48.8781H138.669V49.5369Z" fill="#FAFAFA" fill-opacity="0.25"/>
<path fill-rule="evenodd" clip-rule="evenodd" d="M16.4152 9.92505C16.4152 12.8898 14.0229 15.2368 11.0532 15.2368C9.30749 15.2368 7.77557 14.4116 6.80932 13.1374C3.33354 16.7295 1.19614 21.6207 1.19614 27.0133C1.19614 38.0486 10.1466 46.9838 21.2006 46.9838C31.3016 46.9838 39.6462 39.5228 41.0099 29.8162C39.8806 29.4695 39.0596 28.4198 39.0596 27.1787C39.0596 25.9224 39.9011 24.862 41.052 24.5288C39.8279 14.6674 31.4118 7.04275 21.2006 7.04275C19.3781 7.04275 17.6127 7.28565 15.9352 7.7408C16.2431 8.40777 16.4152 9.14748 16.4152 9.92505ZM42.2898 24.4591C41.0276 13.9707 32.0898 5.84863 21.2418 5.84863C19.1751 5.84863 17.1784 6.14139 15.2911 6.6875C14.3046 5.42768 12.7633 4.61328 11.0532 4.61328C8.12471 4.61328 5.73242 7.00152 5.73242 9.92505C5.73242 10.6893 5.89308 11.4169 6.18345 12.0749C2.35962 15.902 0 21.1811 0 27.0133C0 38.7075 9.48665 48.178 21.2006 48.178C31.9696 48.178 40.8347 40.2299 42.2464 29.9054C43.5716 29.7019 44.5865 28.5586 44.5865 27.1787C44.5865 25.8141 43.5937 24.6806 42.2898 24.4591Z" fill="#FAFAFA" fill-opacity="0.25"/>
</g>
<defs>
<clipPath id="clip0_161:548">
<rect width="139" height="56" fill="white" transform="translate(0 0.00195312)"/>
</clipPath>
</defs>
</svg>
