<svg width="48" height="48" viewBox="0 0 48 48" fill="none" xmlns="http://www.w3.org/2000/svg">
<path d="M14.0001 16C14.0001 13.3478 15.0536 10.8043 16.929 8.92893C18.8044 7.05357 21.3479 6 24.0001 6C26.6522 6 29.1958 7.05357 31.0711 8.92893C32.9465 10.8043 34.0001 13.3478 34.0001 16C34.0001 18.6522 32.9465 21.1957 31.0711 23.0711C29.1958 24.9464 26.6522 26 24.0001 26C21.3479 26 18.8044 24.9464 16.929 23.0711C15.0536 21.1957 14.0001 18.6522 14.0001 16ZM24.0001 22C25.5914 22 27.1175 21.3679 28.2427 20.2426C29.3679 19.1174 30.0001 17.5913 30.0001 16C30.0001 14.4087 29.3679 12.8826 28.2427 11.7574C27.1175 10.6321 25.5914 10 24.0001 10C22.4088 10 20.8826 10.6321 19.7574 11.7574C18.6322 12.8826 18.0001 14.4087 18.0001 16C18.0001 17.5913 18.6322 19.1174 19.7574 20.2426C20.8826 21.3679 22.4088 22 24.0001 22Z" fill="#808080"/>
<path d="M12.6861 32.6866C11.2003 34.1724 10.0218 35.9363 9.2178 37.8775C8.41377 39.8188 7.99998 41.8994 8.00006 44.0006H12.0001C12.0001 40.818 13.2643 37.7657 15.5148 35.5153C17.7652 33.2649 20.8175 32.0006 24.0001 32.0006C27.1827 32.0006 30.2349 33.2649 32.4853 35.5153C34.7358 37.7657 36.0001 40.818 36.0001 44.0006H40.0001C40.0002 40.836 39.0618 37.7425 37.3038 35.1112C35.5457 32.4799 33.0468 30.429 30.1231 29.218C27.1994 28.0069 23.9822 27.6901 20.8785 28.3075C17.7747 28.9249 14.9237 30.4488 12.6861 32.6866Z" fill="#808080"/>
</svg>
